<svg width="50" height="50" viewBox="0 0 50 50" fill="none" xmlns="http://www.w3.org/2000/svg">
<path d="M46.875 4.67651L34.3641 4.67656V1.5625C34.3641 0.699219 33.6648 0 32.8016 0C31.9383 0 31.2391 0.699219 31.2391 1.5625V4.67578H18.7391V1.5625C18.7391 0.699219 18.0398 0 17.1766 0C16.3133 0 15.6141 0.699219 15.6141 1.5625V4.67578H3.125C1.39922 4.67578 0 6.075 0 7.80078V46.8633C0 48.589 1.39922 49.9883 3.125 49.9883H46.875C48.6008 49.9883 50 48.589 50 46.8633V7.80078C50 6.07573 48.6008 4.67651 46.875 4.67651ZM46.875 46.8633H3.125V7.80078H15.6141V9.375C15.6141 10.2382 16.3133 10.9375 17.1766 10.9375C18.0398 10.9375 18.7391 10.2382 18.7391 9.375V7.80156H31.2391V9.37578C31.2391 10.2391 31.9383 10.9383 32.8016 10.9383C33.6648 10.9383 34.3641 10.2391 34.3641 9.37578V7.80156H46.875V46.8633ZM35.9375 24.989H39.0625C39.925 24.989 40.625 24.289 40.625 23.4265V20.3015C40.625 19.439 39.925 18.739 39.0625 18.739H35.9375C35.075 18.739 34.375 19.439 34.375 20.3015V23.4265C34.375 24.289 35.075 24.989 35.9375 24.989ZM35.9375 37.4882H39.0625C39.925 37.4882 40.625 36.789 40.625 35.9257V32.8007C40.625 31.9382 39.925 31.2382 39.0625 31.2382H35.9375C35.075 31.2382 34.375 31.9382 34.375 32.8007V35.9257C34.375 36.7898 35.075 37.4882 35.9375 37.4882ZM26.5625 31.2382H23.4375C22.575 31.2382 21.875 31.9382 21.875 32.8007V35.9257C21.875 36.789 22.575 37.4882 23.4375 37.4882H26.5625C27.425 37.4882 28.125 36.789 28.125 35.9257V32.8007C28.125 31.939 27.425 31.2382 26.5625 31.2382ZM26.5625 18.739H23.4375C22.575 18.739 21.875 19.439 21.875 20.3015V23.4265C21.875 24.289 22.575 24.989 23.4375 24.989H26.5625C27.425 24.989 28.125 24.289 28.125 23.4265V20.3015C28.125 19.4382 27.425 18.739 26.5625 18.739ZM14.0625 18.739H10.9375C10.075 18.739 9.375 19.439 9.375 20.3015V23.4265C9.375 24.289 10.075 24.989 10.9375 24.989H14.0625C14.925 24.989 15.625 24.289 15.625 23.4265V20.3015C15.625 19.4382 14.925 18.739 14.0625 18.739ZM14.0625 31.2382H10.9375C10.075 31.2382 9.375 31.9382 9.375 32.8007V35.9257C9.375 36.789 10.075 37.4882 10.9375 37.4882H14.0625C14.925 37.4882 15.625 36.789 15.625 35.9257V32.8007C15.625 31.939 14.925 31.2382 14.0625 31.2382Z" fill="#0D3C7F"/>
</svg>
