<svg width="220" height="340" viewBox="0 0 220 338" fill="none" xmlns="http://www.w3.org/2000/svg">
<path d="M23.5714 0H196.429C202.68 0 208.676 2.48446 213.096 6.90683C217.517 11.3292 220 17.3272 220 23.5814V314.419C220 320.673 217.517 326.671 213.096 331.093C208.676 335.516 202.68 338 196.429 338H23.5714C17.3199 338 11.3244 335.516 6.90391 331.093C2.48341 326.671 0 320.673 0 314.419V23.5814C0 17.3272 2.48341 11.3292 6.90391 6.90683C11.3244 2.48446 17.3199 0 23.5714 0ZM35.3571 39.3023C29.1056 39.3023 23.1101 41.7868 18.6896 46.2092C14.2691 50.6315 11.7857 56.6295 11.7857 62.8837V275.116C11.7857 281.37 14.2691 287.368 18.6896 291.791C23.1101 296.213 29.1056 298.698 35.3571 298.698H184.643C190.894 298.698 196.89 296.213 201.31 291.791C205.731 287.368 208.214 281.37 208.214 275.116V62.8837C208.214 56.6295 205.731 50.6315 201.31 46.2092C196.89 41.7868 190.894 39.3023 184.643 39.3023H35.3571Z" fill="#0D3C7F" fill-opacity="0.93"/>
<path d="M110.5 332C117.956 332 124 325.956 124 318.5C124 311.044 117.956 305 110.5 305C103.044 305 97 311.044 97 318.5C97 325.956 103.044 332 110.5 332Z" stroke="white" stroke-width="4"/>
</svg>
