<svg width="31" height="50" viewBox="0 0 31 50" fill="none" xmlns="http://www.w3.org/2000/svg">
<path d="M25.8619 0H4.3547C1.95352 0 0 1.95352 0 4.3547V45.6453C0 48.0465 1.95352 50 4.3547 50H25.8618C28.2633 50 30.217 48.0465 30.217 45.6453V4.3547C30.2171 1.95352 28.2635 0 25.8619 0ZM2.10352 4.3547C2.10352 3.11339 3.11329 2.10352 4.3547 2.10352H25.8618C27.1034 2.10352 28.1134 3.11339 28.1134 4.3547V5.20598H2.10352V4.3547ZM28.1136 45.6455C28.1136 46.8868 27.1034 47.8967 25.8619 47.8967H4.3547C3.11329 47.8967 2.10352 46.8868 2.10352 45.6455V41.6706H28.1136V45.6455ZM28.1136 39.5669H2.10352V7.3096H28.1136V39.5669Z" fill="#0D3C7F"/>
<path d="M15.1336 46.3697C16.0073 46.3697 16.7198 45.6571 16.7198 44.7835C16.7198 43.9098 16.0071 43.1973 15.1336 43.1973C14.2599 43.1973 13.5474 43.9099 13.5474 44.7835C13.5473 45.6571 14.2599 46.3697 15.1336 46.3697Z" fill="#0D3C7F"/>
<path d="M5.21653 31.5651C4.63576 31.5651 4.16476 32.0362 4.16476 32.6168V36.7762C4.16476 37.3571 4.63576 37.828 5.21653 37.828C5.79739 37.828 6.26829 37.3571 6.26829 36.7762V32.6168C6.26829 32.0362 5.79729 31.5651 5.21653 31.5651Z" fill="#0D3C7F"/>
<path d="M5.21613 30.677C5.79699 30.677 6.26789 30.2061 6.26789 29.6253V29.6005C6.26789 29.0197 5.79699 28.5487 5.21613 28.5487C4.63536 28.5487 4.16437 29.0197 4.16437 29.6005V29.6253C4.16437 30.2061 4.63527 30.677 5.21613 30.677Z" fill="#0D3C7F"/>
<path d="M25.0001 14.3814C25.5809 14.3814 26.0519 13.9105 26.0519 13.3297V10.6783C26.0519 10.0976 25.581 9.62653 25.0001 9.62653C24.4193 9.62653 23.9483 10.0976 23.9483 10.6783V13.3297C23.9483 13.9105 24.4193 14.3814 25.0001 14.3814Z" fill="#0D3C7F"/>
<path d="M24.9997 17.3979C25.5805 17.3979 26.0515 16.927 26.0515 16.3462V16.3214C26.0515 15.7406 25.5806 15.2696 24.9997 15.2696C24.4189 15.2696 23.948 15.7407 23.948 16.3214V16.3462C23.948 16.927 24.4189 17.3979 24.9997 17.3979Z" fill="#0D3C7F"/>
<path d="M15.1085 30.8352C17.084 30.8352 18.9415 30.0657 20.3385 28.6685C21.7357 27.2715 22.5052 25.414 22.5052 23.4383C22.5052 21.4626 21.7358 19.6052 20.3386 18.2081C18.9416 16.8109 17.084 16.0414 15.1085 16.0414C13.1327 16.0414 11.2752 16.8109 9.87806 18.2081C6.99436 21.092 6.99436 25.7845 9.87806 28.6686C11.2752 30.0655 13.1328 30.8352 15.1085 30.8352ZM11.3654 19.6954C12.3653 18.6956 13.6945 18.1449 15.1085 18.1449C16.5221 18.1449 17.8513 18.6956 18.8511 19.6954C19.851 20.6952 20.4015 22.0243 20.4015 23.4382C20.4015 24.8518 19.851 26.1811 18.851 27.1809C17.8513 28.1807 16.5221 28.7314 15.1085 28.7314C13.6947 28.7314 12.3654 28.1807 11.3655 27.1809C9.30179 25.1171 9.30179 21.759 11.3654 19.6954Z" fill="#0D3C7F"/>
<path d="M12.8187 25.728C13.0241 25.9334 13.2932 26.0362 13.5624 26.0362C13.8315 26.0362 14.1008 25.9335 14.306 25.728L15.1083 24.9257L15.9105 25.728C16.1159 25.9334 16.385 26.0362 16.6543 26.0362C16.9234 26.0362 17.1926 25.9335 17.3979 25.728C17.8087 25.3174 17.8087 24.6515 17.3979 24.2405L16.5957 23.4382L17.3979 22.6358C17.8089 22.225 17.8089 21.5592 17.3981 21.1483C16.9873 20.7377 16.3214 20.7377 15.9106 21.1483L15.1084 21.9507L14.3061 21.1483C13.8954 20.738 13.2297 20.7377 12.8186 21.1483C12.4079 21.5592 12.4079 22.2249 12.8186 22.6358L13.6209 23.4382L12.8186 24.2405C12.408 24.6514 12.408 25.3174 12.8187 25.728Z" fill="#0D3C7F"/>
</svg>
