<svg width="50" height="50" viewBox="0 0 50 50" fill="none" xmlns="http://www.w3.org/2000/svg">
<path d="M3.125 1.5625V48.4375C3.125 48.8519 2.96038 49.2493 2.66735 49.5424C2.37433 49.8354 1.9769 50 1.5625 50C1.1481 50 0.750671 49.8354 0.457646 49.5424C0.16462 49.2493 0 48.8519 0 48.4375V1.5625C0 1.1481 0.16462 0.750671 0.457646 0.457646C0.750671 0.16462 1.1481 0 1.5625 0C1.9769 0 2.37433 0.16462 2.66735 0.457646C2.96038 0.750671 3.125 1.1481 3.125 1.5625ZM10.9375 0H7.8125C7.3981 0 7.00067 0.16462 6.70765 0.457646C6.41462 0.750671 6.25 1.1481 6.25 1.5625V48.4375C6.25 48.8519 6.41462 49.2493 6.70765 49.5424C7.00067 49.8354 7.3981 50 7.8125 50H10.9375C11.3519 50 11.7493 49.8354 12.0424 49.5424C12.3354 49.2493 12.5 48.8519 12.5 48.4375V1.5625C12.5 1.1481 12.3354 0.750671 12.0424 0.457646C11.7493 0.16462 11.3519 0 10.9375 0ZM39.0625 0H29.6875C29.2731 0 28.8757 0.16462 28.5826 0.457646C28.2896 0.750671 28.125 1.1481 28.125 1.5625V48.4375C28.125 48.8519 28.2896 49.2493 28.5826 49.5424C28.8757 49.8354 29.2731 50 29.6875 50H39.0625C39.4769 50 39.8743 49.8354 40.1674 49.5424C40.4604 49.2493 40.625 48.8519 40.625 48.4375V1.5625C40.625 1.1481 40.4604 0.750671 40.1674 0.457646C39.8743 0.16462 39.4769 0 39.0625 0ZM17.1875 0C16.7731 0 16.3757 0.16462 16.0826 0.457646C15.7896 0.750671 15.625 1.1481 15.625 1.5625V48.4375C15.625 48.8519 15.7896 49.2493 16.0826 49.5424C16.3757 49.8354 16.7731 50 17.1875 50C17.6019 50 17.9993 49.8354 18.2924 49.5424C18.5854 49.2493 18.75 48.8519 18.75 48.4375V1.5625C18.75 1.1481 18.5854 0.750671 18.2924 0.457646C17.9993 0.16462 17.6019 0 17.1875 0ZM48.4375 0C48.0231 0 47.6257 0.16462 47.3326 0.457646C47.0396 0.750671 46.875 1.1481 46.875 1.5625V48.4375C46.875 48.8519 47.0396 49.2493 47.3326 49.5424C47.6257 49.8354 48.0231 50 48.4375 50C48.8519 50 49.2493 49.8354 49.5424 49.5424C49.8354 49.2493 50 48.8519 50 48.4375V1.5625C50 1.1481 49.8354 0.750671 49.5424 0.457646C49.2493 0.16462 48.8519 0 48.4375 0Z" fill="#0D3C7F"/>
</svg>
