<svg width="80" height="80" viewBox="0 0 80 80" fill="none" xmlns="http://www.w3.org/2000/svg">
<circle cx="40" cy="40" r="40" fill="#2B0BF1"/>
<path d="M21 35.09C20.4696 35.09 19.9609 34.8793 19.5858 34.5042C19.2107 34.1291 19 33.6204 19 33.09V32.24C19.0026 28.2007 20.6078 24.3273 23.4631 21.4702C26.3184 18.613 30.1906 17.0053 34.23 17H58.44C58.9704 17 59.4791 17.2107 59.8542 17.5858C60.2293 17.9609 60.44 18.4696 60.44 19V21.41C60.44 25.0046 59.0127 28.4521 56.4719 30.9948C53.9311 33.5375 50.4846 34.9674 46.89 34.97H34.99C34.4596 34.97 33.9509 34.7593 33.5758 34.3842C33.2007 34.0091 32.99 33.5004 32.99 32.97C32.99 32.4396 33.2007 31.9309 33.5758 31.5558C33.9509 31.1807 34.4596 30.97 34.99 30.97H46.88C49.4253 30.9674 51.8655 29.9551 53.6653 28.1553C55.4651 26.3555 56.4773 23.9153 56.48 21.37V20.94H34.25C31.2592 20.9427 28.3916 22.1319 26.2768 24.2468C24.1619 26.3616 22.9726 29.2292 22.97 32.22V33.07C22.9753 33.5987 22.7711 34.1081 22.4019 34.4866C22.0327 34.8651 21.5287 35.0821 21 35.09Z" fill="white"/>
<path d="M45.2 62.62H21C20.4696 62.62 19.9609 62.4093 19.5858 62.0342C19.2107 61.6592 19 61.1505 19 60.62V58.2101C19.0026 54.6163 20.4308 51.1702 22.971 48.6281C25.5113 46.086 28.9562 44.6553 32.55 44.65H44.44C44.9704 44.65 45.4791 44.8607 45.8542 45.2358C46.2293 45.6109 46.44 46.1196 46.44 46.65C46.44 47.1805 46.2293 47.6892 45.8542 48.0642C45.4791 48.4393 44.9704 48.65 44.44 48.65H32.57C30.0247 48.6527 27.5845 49.6649 25.7847 51.4647C23.9849 53.2645 22.9726 55.7048 22.97 58.25V58.68H45.2C48.1908 58.6774 51.0584 57.4881 53.1732 55.3733C55.2881 53.2585 56.4773 50.3909 56.48 47.4V46.55C56.4344 46.2644 56.4513 45.9722 56.5296 45.6937C56.6079 45.4151 56.7457 45.1569 56.9334 44.9368C57.1212 44.7167 57.3544 44.54 57.6171 44.4188C57.8798 44.2976 58.1657 44.2348 58.455 44.2348C58.7443 44.2348 59.0302 44.2976 59.2929 44.4188C59.5556 44.54 59.7888 44.7167 59.9766 44.9368C60.1643 45.1569 60.3021 45.4151 60.3804 45.6937C60.4587 45.9722 60.4756 46.2644 60.43 46.55V47.4C60.4221 51.4359 58.8146 55.3041 55.9599 58.157C53.1051 61.0099 49.2359 62.6147 45.2 62.62Z" fill="white"/>
</svg>
