<svg width="54" height="45" viewBox="0 0 54 45" fill="none" xmlns="http://www.w3.org/2000/svg">
<path d="M19.193 36H33.8668C34.2889 36 34.6937 35.7571 34.9921 35.3249C35.2906 34.8926 35.4583 34.3063 35.4583 33.6949L41 4.30524C41 4.00021 40.9582 3.69821 40.8771 3.41674C40.7959 3.13527 40.677 2.87993 40.5272 2.66552C40.3774 2.45111 40.1997 2.2819 40.0044 2.16769C39.8091 2.05347 39.6002 1.99653 39.3896 2.00016H15.3375C14.9145 2.00015 14.5087 2.24257 14.2088 2.67446C13.9088 3.10636 13.739 3.69264 13.7365 4.30524L9 33.6949C9 34.3063 9.16767 34.8926 9.46613 35.3249C9.76459 35.7571 10.1694 36 10.5915 36H12.6566" stroke="white" stroke-width="3"/>
<path d="M38.3422 36H35L39.8159 13H47.7331C47.8522 12.9996 47.97 13.0351 48.0781 13.1041C48.1862 13.173 48.2822 13.2737 48.3592 13.3991L51.8074 21.7796C51.9309 21.975 51.9993 22.2253 52 22.4847L48.7926 36H45.3252" stroke="white" stroke-width="3"/>
<path d="M16.5 43C18.433 43 20 40.5376 20 37.5C20 34.4624 18.433 32 16.5 32C14.567 32 13 34.4624 13 37.5C13 40.5376 14.567 43 16.5 43Z" stroke="white" stroke-width="3"/>
<path d="M42.5 43C44.433 43 46 40.5376 46 37.5C46 34.4624 44.433 32 42.5 32C40.567 32 39 34.4624 39 37.5C39 40.5376 40.567 43 42.5 43Z" stroke="white" stroke-width="3"/>
<path d="M21 9H5" stroke="white" stroke-width="3" stroke-linecap="round"/>
<path d="M18 16H7" stroke="white" stroke-width="3" stroke-linecap="round"/>
<path d="M19 24H2" stroke="white" stroke-width="3" stroke-linecap="round"/>
</svg>
