<svg width="50" height="50" viewBox="0 0 50 50" fill="none" xmlns="http://www.w3.org/2000/svg">
<path d="M29.6511 46.5116H20.3488V50H29.6511V46.5116ZM3.48836 29.6512V20.3489H1.49957e-06V29.6512H3.48836ZM46.5115 28.6347V29.6512H49.9998V28.6347H46.5115ZM31.7236 7.81666L40.9301 16.1025L43.2636 13.5096L34.0573 5.22378L31.7236 7.81666ZM49.9998 28.6347C49.9998 24.7082 50.035 22.2222 49.0443 19.9977L45.8578 21.4168C46.4764 22.8059 46.5115 24.4001 46.5115 28.6347H49.9998ZM40.9301 16.1025C44.0775 18.9352 45.2392 20.028 45.8578 21.4168L49.0443 19.9977C48.0536 17.7731 46.1822 16.1362 43.2636 13.5096L40.9301 16.1025ZM20.4181 3.48848C24.0967 3.48848 25.4848 3.51541 26.722 3.99018L27.9718 0.733372C25.9909 -0.0268123 23.8325 0.000117892 20.4181 0.000117892V3.48848ZM34.0573 5.22378C31.5318 2.95076 29.9527 1.49346 27.9718 0.733372L26.722 3.99018C27.9597 4.46506 29.0034 5.36838 31.7236 7.81666L34.0573 5.22378ZM20.3488 46.5116C15.9143 46.5116 12.7639 46.5079 10.374 46.1865C8.0343 45.8721 6.68628 45.2821 5.70208 44.2979L3.23543 46.7647C4.97582 48.5049 7.18265 49.2772 9.90923 49.644C12.5856 50.0037 16.0129 50 20.3488 50V46.5116ZM1.49957e-06 29.6512C1.49957e-06 33.987 -0.00369603 37.4144 0.356117 40.0907C0.722697 42.8172 1.49507 45.0242 3.23543 46.7647L5.70208 44.2979C4.71787 43.3137 4.12794 41.9656 3.81338 39.6261C3.49206 37.2361 3.48836 34.0856 3.48836 29.6512H1.49957e-06ZM29.6511 50C33.9869 50 37.4143 50.0037 40.0906 49.644C42.8171 49.2772 45.024 48.5049 46.7645 46.7647L44.2978 44.2979C43.3136 45.2821 41.9655 45.8721 39.6259 46.1865C37.2359 46.5079 34.0855 46.5116 29.6511 46.5116V50ZM46.5115 29.6512C46.5115 34.0856 46.5078 37.2361 46.1864 39.6261C45.872 41.9656 45.282 43.3137 44.2978 44.2979L46.7645 46.7647C48.5047 45.0242 49.2771 42.8172 49.6438 40.0907C50.0036 37.4144 49.9998 33.987 49.9998 29.6512H46.5115ZM3.48836 20.3489C3.48836 15.9145 3.49206 12.7641 3.81338 10.3742C4.12794 8.03442 4.71787 6.6864 5.70208 5.7022L3.23543 3.23555C1.49507 4.97594 0.722697 7.18277 0.356117 9.90935C-0.00369603 12.5857 1.49957e-06 16.0131 1.49957e-06 20.3489H3.48836ZM20.4181 0.000117892C16.059 0.000117892 12.6149 -0.00355659 9.92757 0.356094C7.19142 0.722302 4.97717 1.49383 3.23543 3.23555L5.70208 5.7022C6.68493 4.71936 8.03709 4.1286 10.3903 3.81364C12.7924 3.49216 15.9607 3.48848 20.4181 3.48848V0.000117892Z" fill="white"/>
<path d="M27 3V8.66667C27 14.0092 27 16.6805 28.7085 18.3403C30.4172 20 33.167 20 38.6667 20H48" fill="white"/>
<path d="M27 3V8.66667C27 14.0092 27 16.6805 28.7085 18.3403C30.4172 20 33.167 20 38.6667 20H48" stroke="white" stroke-width="4"/>
<path d="M11 35.5L14 39L20 32" fill="white"/>
<path d="M11 35.5L14 39L20 32" stroke="white" stroke-width="4" stroke-linecap="round" stroke-linejoin="round"/>
</svg>
