<svg width="52" height="52" viewBox="0 0 52 52" fill="none" xmlns="http://www.w3.org/2000/svg">
<path d="M21.1937 30.8473C19.7552 31.2723 18.229 31.5007 16.6481 31.5007C8.0059 31.5007 1 24.6729 1 16.2504C1 13.896 1.54743 11.6662 2.52502 9.67535L13.909 20.77L21.2856 13.5809L9.90161 2.48626C11.9444 1.53352 14.2323 1 16.6481 1C25.2903 1 32.2962 7.82783 32.2962 16.2504C32.2962 18.4881 31.8017 20.6133 30.9133 22.5278L49.4723 40.615C51.5092 42.6003 51.5092 45.8189 49.4723 47.8041L47.7208 49.5111C45.6838 51.4963 42.3812 51.4963 40.3442 49.5111L21.1937 30.8473Z" stroke="white" stroke-width="2" stroke-linecap="square"/>
</svg>
