<svg width="53" height="54" viewBox="0 0 53 54" fill="none" xmlns="http://www.w3.org/2000/svg">
<path d="M51 27C51 38.785 51 44.6777 47.412 48.3387C43.8242 52 38.0493 52 26.5 52C14.9506 52 9.17588 52 5.58795 48.3387C2 44.6777 2 38.785 2 27C2 15.2149 2 9.32232 5.58795 5.66117C9.17588 2 14.9506 2 26.5 2C38.0493 2 43.8242 2 47.412 5.66117C49.7978 8.09552 50.5972 11.5164 50.865 17" stroke="white" stroke-width="4" stroke-linecap="round"/>
<path d="M41 18.0909H31.3333M41 33.3637H31.3333M41 41H31.3333M21.6667 18.0909H16.8333M16.8333 18.0909H12M16.8333 18.0909V13M16.8333 18.0909V23.1819M20.4583 33.3637L16.8334 37.1818M16.8334 37.1818L13.2084 41M16.8334 37.1818L13.2083 33.3637M16.8334 37.1818L20.4583 41" stroke="white" stroke-width="4" stroke-linecap="round"/>
</svg>
