<svg width="50" height="50" viewBox="0 0 50 50" fill="none" xmlns="http://www.w3.org/2000/svg">
<path d="M32.524 28.5077C37.6249 21.4867 37.0133 11.5802 30.6836 5.25352C23.6738 -1.75117 12.2671 -1.75117 5.25811 5.25352C-1.7527 12.2599 -1.7527 23.6576 5.25811 30.6641C11.5877 36.9897 21.5005 37.601 28.525 32.5043L29.9147 33.8913L33.9129 29.8956L32.524 28.5077ZM27.1975 27.1811C22.1021 32.2723 13.8396 32.2732 8.74339 27.1811C3.64725 22.088 3.64725 13.8298 8.74339 8.7376C13.8397 3.64541 22.1021 3.64541 27.1975 8.7376C32.2936 13.8298 32.2936 22.088 27.1975 27.1811Z" fill="white"/>
<path d="M10.6652 11.6423C8.01923 15.0395 7.79975 19.7132 10.005 23.3233C10.2143 23.6641 10.6606 23.7728 11.0025 23.5636C11.3436 23.3544 11.4514 22.9084 11.2431 22.5677V22.5685C9.34867 19.4728 9.53795 15.4433 11.8081 12.5322C12.0549 12.217 11.9983 11.7609 11.6819 11.5161C11.3665 11.2695 10.9103 11.3262 10.6652 11.6423Z" fill="white"/>
<path d="M48.9895 42.8312L35.4891 30.7792L30.8006 35.4647L42.8592 48.9577C44.0854 50.543 46.2934 50.31 48.2773 48.3272C50.2604 46.3454 50.5768 44.0565 48.9895 42.8312Z" fill="white"/>
</svg>
