<svg width="52" height="43" viewBox="0 0 52 43" fill="none" xmlns="http://www.w3.org/2000/svg">
<path d="M18.193 35H32.8668C33.2889 35 33.6937 34.7571 33.9921 34.3249C34.2906 33.8926 34.4583 33.3063 34.4583 32.6949L40 3.30524C40 3.00021 39.9582 2.69821 39.8771 2.41674C39.7959 2.13527 39.677 1.87993 39.5272 1.66552C39.3774 1.45111 39.1997 1.2819 39.0044 1.16769C38.8091 1.05347 38.6002 0.996532 38.3896 1.00016H14.3375C13.9145 1.00015 13.5087 1.24257 13.2088 1.67446C12.9088 2.10636 12.739 2.69264 12.7365 3.30524L8 32.6949C8 33.3063 8.16767 33.8926 8.46613 34.3249C8.76459 34.7571 9.16939 35 9.59147 35H11.6566" stroke="white" stroke-width="2"/>
<path d="M37.3422 35H34L38.8159 12H46.7331C46.8522 11.9996 46.97 12.0351 47.0781 12.1041C47.1862 12.173 47.2822 12.2737 47.3592 12.3991L50.8074 20.7796C50.9309 20.975 50.9993 21.2253 51 21.4847L47.7926 35H44.3252" stroke="white" stroke-width="2"/>
<path d="M15.5 42C17.433 42 19 39.5376 19 36.5C19 33.4624 17.433 31 15.5 31C13.567 31 12 33.4624 12 36.5C12 39.5376 13.567 42 15.5 42Z" stroke="white" stroke-width="2"/>
<path d="M41.5 42C43.433 42 45 39.5376 45 36.5C45 33.4624 43.433 31 41.5 31C39.567 31 38 33.4624 38 36.5C38 39.5376 39.567 42 41.5 42Z" stroke="white" stroke-width="2"/>
<path d="M20 8H4" stroke="white" stroke-width="2" stroke-linecap="round"/>
<path d="M17 15H6" stroke="white" stroke-width="2" stroke-linecap="round"/>
<path d="M18 23H1" stroke="white" stroke-width="2" stroke-linecap="round"/>
</svg>
