<svg width="50" height="50" viewBox="0 0 50 50" fill="none" xmlns="http://www.w3.org/2000/svg">
<path d="M0 26.3158V39.4737C0 40.1716 0.239447 40.841 0.665666 41.3345C1.09189 41.828 1.66996 42.1053 2.27273 42.1053H4.54545C4.54545 44.1991 5.2638 46.2071 6.54245 47.6877C7.82111 49.1682 9.55534 50 11.3636 50C13.1719 50 14.9062 49.1682 16.1848 47.6877C17.4635 46.2071 18.1818 44.1991 18.1818 42.1053H31.8182C31.8182 44.1991 32.5365 46.2071 33.8152 47.6877C35.0938 49.1682 36.8281 50 38.6364 50C40.4447 50 42.1789 49.1682 43.4575 47.6877C44.7362 46.2071 45.4545 44.1991 45.4545 42.1053H47.7273C48.33 42.1053 48.9081 41.828 49.3343 41.3345C49.7606 40.841 50 40.1716 50 39.4737V7.89474C50 5.80092 49.2817 3.79287 48.003 2.31232C46.7243 0.831765 44.9901 0 43.1818 0H22.7273C20.919 0 19.1847 0.831765 17.9061 2.31232C16.6274 3.79287 15.9091 5.80092 15.9091 7.89474V13.1579H11.3636C10.3051 13.1579 9.26119 13.4433 8.31445 13.9914C7.36771 14.5395 6.54418 15.3353 5.90909 16.3158L0.454546 24.7368C0.388071 24.8512 0.334601 24.9751 0.295455 25.1053L0.159091 25.3947C0.0587865 25.6882 0.00489783 26.0002 0 26.3158ZM36.3636 42.1053C36.3636 41.5848 36.4969 41.076 36.7467 40.6432C36.9964 40.2105 37.3513 39.8732 37.7666 39.674C38.1819 39.4748 38.6389 39.4227 39.0798 39.5242C39.5206 39.6258 39.9256 39.8764 40.2434 40.2445C40.5613 40.6125 40.7777 41.0814 40.8654 41.5919C40.9531 42.1023 40.9081 42.6315 40.7361 43.1123C40.5641 43.5932 40.2728 44.0042 39.899 44.2933C39.5253 44.5825 39.0859 44.7368 38.6364 44.7368C38.0336 44.7368 37.4555 44.4596 37.0293 43.9661C36.6031 43.4726 36.3636 42.8032 36.3636 42.1053ZM20.4545 7.89474C20.4545 7.1968 20.694 6.52745 21.1202 6.03393C21.5464 5.54041 22.1245 5.26316 22.7273 5.26316H43.1818C43.7846 5.26316 44.3627 5.54041 44.7889 6.03393C45.2151 6.52745 45.4545 7.1968 45.4545 7.89474V36.8421H43.6818C43.0428 36.028 42.2638 35.3776 41.395 34.9325C40.5261 34.4873 39.5865 34.2574 38.6364 34.2574C37.6863 34.2574 36.7466 34.4873 35.8778 34.9325C35.0089 35.3776 34.23 36.028 33.5909 36.8421H20.4545V7.89474ZM15.9091 23.6842H6.81818L9.54545 19.4737C9.75715 19.1469 10.0317 18.8816 10.3472 18.6989C10.6628 18.5162 11.0108 18.4211 11.3636 18.4211H15.9091V23.6842ZM9.09091 42.1053C9.09091 41.5848 9.2242 41.076 9.47393 40.6432C9.72366 40.2105 10.0786 39.8732 10.4939 39.674C10.9092 39.4748 11.3662 39.4227 11.807 39.5242C12.2479 39.6258 12.6529 39.8764 12.9707 40.2445C13.2885 40.6125 13.505 41.0814 13.5927 41.5919C13.6804 42.1023 13.6354 42.6315 13.4634 43.1123C13.2913 43.5932 13 44.0042 12.6263 44.2933C12.2525 44.5825 11.8131 44.7368 11.3636 44.7368C10.7609 44.7368 10.1828 44.4596 9.75658 43.9661C9.33036 43.4726 9.09091 42.8032 9.09091 42.1053ZM4.54545 28.9474H15.9091V36.2632C14.5678 34.8751 12.8071 34.1571 11.0107 34.2656C9.21421 34.374 7.52755 35.3001 6.31818 36.8421H4.54545V28.9474Z" fill="white"/>
</svg>
