<svg width="50" height="50" viewBox="0 0 50 50" fill="none" xmlns="http://www.w3.org/2000/svg">
<path fill-rule="evenodd" clip-rule="evenodd" d="M23.8767 46.4456C24.2487 46.5539 24.6554 46.5276 25.0008 46.3766C25.379 46.2113 25.629 45.9228 25.719 45.6088L26.9387 41.344C27.3651 39.8526 27.9864 38.414 28.7861 37.0558C30.0279 34.9473 31.907 33.3256 33.6502 31.9631L37.3393 29.08C37.911 28.633 38.2119 27.9633 38.1467 27.2795L36.0643 5.43605C35.9591 4.33256 34.9426 3.48837 33.7275 3.48837H21.808C13.7662 3.48837 6.99067 8.56349 5.69119 15.3788L3.88224 24.8665C3.63326 26.1723 4.74043 27.3623 6.19324 27.3623L19.478 27.3623C21.9833 27.3623 23.8864 29.4009 23.482 31.6402L21.7828 41.0462C21.55 42.3346 21.6164 43.653 21.978 44.9166C22.1613 45.5579 22.7192 46.1083 23.5049 46.3373L23.8767 46.4456ZM26.6705 49.5192C25.4331 50.06 24.0072 50.1476 22.7003 49.7668L22.3285 49.6585C20.3362 49.0779 18.7818 47.6344 18.2549 45.7926C17.759 44.0587 17.668 42.2499 17.9872 40.4821L19.6864 31.0762C19.7082 30.9558 19.6059 30.8507 19.478 30.8507L6.19324 30.8507C2.34891 30.8507 -0.562336 27.7058 0.0922736 24.2721L1.90123 14.7842C3.53686 6.20698 11.9973 2.47844e-06 21.808 2.47844e-06H33.7275C36.9419 2.47844e-06 39.6193 2.23209 39.8961 5.13558L41.9785 26.9791C42.1501 28.7784 41.3585 30.5435 39.85 31.7225L36.1609 34.6057C34.4809 35.9188 33.0667 37.1915 32.1786 38.6994C31.5207 39.8165 31.0111 40.9975 30.6615 42.22L29.4417 46.4847C29.0592 47.8226 28.0346 48.923 26.6705 49.5192ZM48.1598 30.8491C47.131 30.8893 46.2498 30.1873 46.161 29.2567L43.6698 3.12535C43.5098 1.44675 44.9675 2.47844e-06 46.829 2.47844e-06C48.5823 2.47844e-06 50 1.29 50 2.87745L50 29.1065C50 30.0406 49.1887 30.8088 48.1598 30.8491Z" fill="white"/>
</svg>
