<svg width="50" height="50" viewBox="0 0 50 50" fill="none" xmlns="http://www.w3.org/2000/svg">
<path fill-rule="evenodd" clip-rule="evenodd" d="M0 2.2C0 0.984973 0.89543 0 2 0H16C17.1046 0 18 0.984973 18 2.2V18.7C18 20.5226 16.6569 22 15 22H3C1.34315 22 0 20.5226 0 18.7V2.2ZM16 2.2H2V18.7C2 19.3075 2.44772 19.8 3 19.8H15C15.5523 19.8 16 19.3075 16 18.7V2.2ZM10 9.9C10 10.5075 9.5523 11 9 11C8.4477 11 8 10.5075 8 9.9C8 9.29247 8.4477 8.8 9 8.8C9.5523 8.8 10 9.29247 10 9.9ZM5 11C5.55228 11 6 10.5075 6 9.9C6 9.29247 5.55228 8.8 5 8.8C4.44772 8.8 4 9.29247 4 9.9C4 10.5075 4.44772 11 5 11ZM14 9.9C14 10.5075 13.5523 11 13 11C12.4477 11 12 10.5075 12 9.9C12 9.29247 12.4477 8.8 13 8.8C13.5523 8.8 14 9.29247 14 9.9ZM5 14.3C5.55228 14.3 6 13.8075 6 13.2C6 12.5925 5.55228 12.1 5 12.1C4.44772 12.1 4 12.5925 4 13.2C4 13.8075 4.44772 14.3 5 14.3ZM10 13.2C10 13.8075 9.5523 14.3 9 14.3C8.4477 14.3 8 13.8075 8 13.2C8 12.5925 8.4477 12.1 9 12.1C9.5523 12.1 10 12.5925 10 13.2ZM13 14.3C13.5523 14.3 14 13.8075 14 13.2C14 12.5925 13.5523 12.1 13 12.1C12.4477 12.1 12 12.5925 12 13.2C12 13.8075 12.4477 14.3 13 14.3ZM6 16.5C6 17.1075 5.55228 17.6 5 17.6C4.44772 17.6 4 17.1075 4 16.5C4 15.8925 4.44772 15.4 5 15.4C5.55228 15.4 6 15.8925 6 16.5ZM9 17.6C9.5523 17.6 10 17.1075 10 16.5C10 15.8925 9.5523 15.4 9 15.4C8.4477 15.4 8 15.8925 8 16.5C8 17.1075 8.4477 17.6 9 17.6ZM14 16.5C14 17.1075 13.5523 17.6 13 17.6C12.4477 17.6 12 17.1075 12 16.5C12 15.8925 12.4477 15.4 13 15.4C13.5523 15.4 14 15.8925 14 16.5ZM5 4.4C4.44772 4.4 4 4.89249 4 5.5C4 6.10751 4.44772 6.6 5 6.6H13C13.5523 6.6 14 6.10751 14 5.5C14 4.89249 13.5523 4.4 13 4.4H5Z" fill="white"/>
<path d="M45.7996 22.7321C43.3354 18.3473 40.0752 14.519 36.7813 12.1223C36.9863 11.763 37.1052 11.3393 37.1052 10.8856C37.1052 9.93162 36.5807 9.10935 35.8302 8.74313L37.376 2.12205C37.5467 1.46238 37.4364 0.851723 37.0727 0.44498C36.7067 0.0357954 36.1456 -0.0984836 35.5334 0.0772998C35.5213 0.0807179 35.5093 0.0845265 35.4975 0.0886281C35.4683 0.0987845 32.5702 1.10915 31.6077 1.41111C30.9881 1.60496 29.9006 1.60613 29.2803 1.41316C28.3077 1.11061 25.379 0.0961477 25.3495 0.0858937C25.3377 0.0817921 25.3257 0.0779835 25.3138 0.0746631C24.7015 -0.0998508 24.1404 0.0348189 23.7745 0.444492C23.4087 0.854165 23.2994 1.47019 23.4747 2.13465C23.4768 2.14295 23.4792 2.15115 23.4817 2.15936L25.4434 8.76481C24.7166 9.14128 24.2126 9.95027 24.2126 10.8855C24.2126 11.3392 24.3314 11.7629 24.5365 12.1222C21.2426 14.5189 17.9824 18.3472 15.5182 22.732C12.8095 27.5517 11.3178 32.5129 11.3178 36.7018C11.3178 40.7502 12.4168 43.9468 14.5842 46.2027C17.005 48.7224 20.7261 50 25.6443 50H35.6735C40.5917 50 44.3128 48.7224 46.7336 46.2027C48.901 43.9467 50 40.7502 50 36.7018C50 32.5131 48.5083 27.5518 45.7996 22.7321ZM32.0956 11.669C32.0953 11.669 32.0951 11.669 32.0949 11.669H29.2232C29.2227 11.669 29.2221 11.669 29.2216 11.669H26.3606C25.965 11.669 25.6433 11.3176 25.6433 10.8857C25.6433 10.4544 25.9643 10.1033 26.3592 10.1024C26.3597 10.1024 26.3601 10.1025 26.3605 10.1025C26.3612 10.1025 26.362 10.1023 26.3627 10.1023H29.9403C29.9411 10.1023 29.9418 10.1025 29.9426 10.1025C29.9439 10.1025 29.9451 10.1023 29.9464 10.1023H31.3712C31.3725 10.1023 31.3737 10.1025 31.375 10.1025C31.3758 10.1025 31.3765 10.1023 31.3773 10.1023H34.957C35.3526 10.1023 35.6743 10.4538 35.6743 10.8856C35.6743 11.3175 35.3525 11.6689 34.957 11.6689L32.0956 11.669ZM24.8244 1.56277C24.8531 1.56472 24.8907 1.57019 24.937 1.5824C25.2215 1.68093 27.9275 2.61727 28.8885 2.9161C29.762 3.18759 31.1297 3.18652 32.0024 2.91308C32.9528 2.61493 35.6288 1.68318 35.9123 1.58435C35.9576 1.57234 35.9945 1.56677 36.0229 1.56472C36.0201 1.59929 36.013 1.64519 35.9979 1.70222C35.9959 1.70994 35.9939 1.71765 35.9922 1.72546L34.4012 8.53981H32.4319L33.4722 5.69964C33.619 5.29904 33.4406 4.84435 33.0736 4.68419C32.7067 4.52403 32.2904 4.71876 32.1437 5.11945L30.8908 8.53981H30.4268L29.1739 5.11945C29.0272 4.71867 28.6109 4.52394 28.244 4.68419C27.8772 4.84445 27.6987 5.29914 27.8454 5.69964L28.8857 8.53981H26.8806L24.8469 1.69158C24.8334 1.63835 24.827 1.59538 24.8244 1.56277ZM45.7464 45.0718C43.6006 47.3051 40.2117 48.4376 35.6735 48.4376H25.6442C21.106 48.4376 17.717 47.3051 15.5713 45.0718C13.6983 43.1222 12.7485 40.3061 12.7485 36.7019C12.7485 32.7976 14.1651 28.1266 16.7375 23.5494C19.201 19.1658 22.4779 15.3758 25.7407 13.1316C25.9371 13.1963 26.1452 13.2316 26.3606 13.2316H27.8893L27.1981 14.3639C26.9789 14.7229 27.0677 15.2081 27.3965 15.4473C27.5185 15.5361 27.6563 15.5787 27.7927 15.5787C28.0238 15.5787 28.2507 15.4565 28.3886 15.2307L29.6089 13.2317H31.7086L32.9289 15.2307C33.0668 15.4566 33.2936 15.5787 33.5249 15.5787C33.6613 15.5787 33.7991 15.5361 33.921 15.4473C34.2498 15.2081 34.3387 14.7229 34.1195 14.3639L33.4282 13.2316H34.957C35.1725 13.2316 35.3806 13.1963 35.577 13.1316C38.8397 15.3758 42.1166 19.1659 44.58 23.5494C47.1524 28.1266 48.569 32.7975 48.569 36.7019C48.5692 40.3061 47.6194 43.1222 45.7464 45.0718Z" fill="white"/>
<path d="M30.6588 24.9662C31.9608 24.9662 33.1664 25.6442 33.4633 26.5443C33.5043 26.6684 33.5251 26.7957 33.5251 26.923C33.5251 28.2164 34.4888 29.2688 35.6733 29.2688C36.8577 29.2688 37.8214 28.2164 37.8214 26.923C37.8214 26.2528 37.7149 25.5901 37.5047 24.9529C36.7998 22.8164 35.0477 21.2121 32.7619 20.5778C32.5592 19.5127 31.6931 18.7098 30.6585 18.7098C29.6261 18.7098 28.7614 19.5094 28.5564 20.5712C27.2247 20.952 26.0232 21.6951 25.1303 22.6986C24.0762 23.8834 23.4957 25.3836 23.4957 26.923C23.4957 30.589 26.7089 33.5716 30.6585 33.5716C32.0116 33.5716 33.525 34.4084 33.525 35.5283C33.525 36.6484 32.0116 37.4852 30.6585 37.4852C29.3054 37.4852 27.792 36.6484 27.792 35.5283C27.792 34.2349 26.8284 33.1825 25.6439 33.1825C24.4595 33.1825 23.4961 34.235 23.4961 35.5284C23.4961 37.0679 24.0765 38.5681 25.1307 39.7529C26.0234 40.7563 27.2251 41.4995 28.5568 41.8802C28.7618 42.9421 29.6264 43.7417 30.6588 43.7417C31.6913 43.7417 32.5559 42.9421 32.7609 41.8802C34.0926 41.4995 35.2942 40.7563 36.187 39.7529C37.2412 38.5681 37.8216 37.0679 37.8216 35.5284C37.8216 31.8625 34.6085 28.8799 30.6588 28.8799C29.3057 28.8799 27.7924 28.0431 27.7924 26.9231C27.7924 25.8031 29.3056 24.9662 30.6588 24.9662ZM30.6588 30.4424C33.8194 30.4424 36.3907 32.724 36.3907 35.5284C36.3907 37.8626 34.5264 39.9439 31.9579 40.4772C31.6204 40.5474 31.3761 40.8696 31.3761 41.2447V41.3958C31.3761 41.8277 31.0543 42.1791 30.6588 42.1791C30.2633 42.1791 29.9416 41.8276 29.9416 41.3958V41.2447C29.9416 40.8695 29.6973 40.5473 29.3598 40.4772C26.7912 39.9439 24.927 37.8627 24.927 35.5284C24.927 35.0965 25.2488 34.7451 25.6443 34.7451C26.0397 34.7451 26.3616 35.0966 26.3616 35.5284C26.3616 37.469 28.2893 39.0478 30.6588 39.0478C33.0284 39.0478 34.9561 37.469 34.9561 35.5284C34.9561 33.5879 33.0284 32.0092 30.6588 32.0092C27.4983 32.0092 24.9269 29.7276 24.9269 26.9231C24.9269 24.5889 26.7912 22.5076 29.3597 21.9744C29.6972 21.9043 29.9415 21.582 29.9415 21.2069V21.0558C29.9415 20.6239 30.2633 20.2725 30.6588 20.2725C31.0543 20.2725 31.376 20.624 31.376 21.0558V21.2164C31.376 21.5927 31.6216 21.9155 31.9604 21.9844C33.9734 22.3944 35.5821 23.7348 36.1587 25.4826C36.3127 25.9492 36.3907 26.4339 36.3907 26.9231C36.3907 27.355 36.0689 27.7064 35.6734 27.7064C35.278 27.7064 34.9561 27.3549 34.9561 26.9231C34.9561 26.6141 34.9066 26.3078 34.8092 26.0139C34.3023 24.477 32.5956 23.4037 30.6588 23.4037C28.2893 23.4037 26.3616 24.9824 26.3616 26.923C26.3616 28.8635 28.2892 30.4424 30.6588 30.4424Z" fill="white"/>
</svg>
