<svg width="37" height="50" viewBox="0 0 37 50" fill="none" xmlns="http://www.w3.org/2000/svg">
<path d="M32.6663 50H4.37008C3.7874 50 3.20472 49.8799 2.65847 49.6397C2.14862 49.3994 1.6752 49.0391 1.27461 48.5987C0.874016 48.1582 0.54626 47.6377 0.327756 47.0772C0.109252 46.4766 0 45.8761 0 45.1954V12.8046C0 12.164 0.109252 11.5234 0.327756 10.9228C0.54626 10.3622 0.874016 9.84175 1.27461 9.40133C1.6752 8.96092 2.14862 8.60057 2.65847 8.36034C3.20472 8.12011 3.75098 8 4.37008 8H8.66732V10.4023H4.37008C3.16831 10.4023 2.18504 11.4833 2.18504 12.8046V45.1954C2.18504 46.5167 3.16831 47.5977 4.37008 47.5977H32.6663C33.8681 47.5977 34.8514 46.5167 34.8514 45.1954V12.8046C34.8514 11.4833 33.8681 10.4023 32.6663 10.4023H28.3691V8H32.6299C33.2126 8 33.7953 8.12011 34.3415 8.36034C34.8514 8.60057 35.3248 8.96092 35.7254 9.40133C36.126 9.84175 36.4537 10.3622 36.6722 10.9228C36.8907 11.5234 37 12.1239 37 12.8046V45.1954C37 45.836 36.8907 46.4766 36.6722 47.0772C36.4537 47.6377 36.126 48.1582 35.7254 48.5987C35.3248 49.0391 34.8514 49.3994 34.3415 49.6397C33.8317 49.8799 33.249 50 32.6663 50Z" fill="white"/>
<path d="M28.7642 14.9223H8.23582V6.88083C8.23582 5.18135 9.36866 3.77202 10.8104 3.77202H13.4537C14.4149 1.49223 16.3373 0 18.5 0C20.6627 0 22.5851 1.49223 23.5463 3.77202H26.1896C27.597 3.77202 28.7642 5.1399 28.7642 6.88083V14.9223ZM10.2955 12.4352H26.7045V6.88083C26.7045 6.54922 26.4642 6.25907 26.1896 6.25907H22.1388L21.8985 5.43005C21.3836 3.68912 20.0448 2.5285 18.5 2.5285C16.9552 2.5285 15.6164 3.68912 15.1015 5.43005L14.8612 6.25907H10.8104C10.5358 6.25907 10.2955 6.54922 10.2955 6.88083V12.4352ZM15.0328 40C14.7582 40 14.5179 39.8756 14.3119 39.6269L7.30896 31.171C7.10298 30.9223 7 30.6321 7 30.3005C7 29.9689 7.10298 29.6788 7.30896 29.4301C7.51493 29.1813 7.75522 29.057 8.02985 29.057C8.30448 29.057 8.54478 29.1813 8.75075 29.4301L14.4149 36.2694C14.5866 36.4767 14.7925 36.5596 14.9985 36.5596C15.2045 36.5596 15.4448 36.4767 15.5821 36.2694L28.2493 20.9741C28.4552 20.7254 28.6955 20.601 28.9701 20.601C29.2448 20.601 29.4851 20.7254 29.691 20.9741C30.103 21.4715 30.103 22.2176 29.691 22.715L15.7537 39.6269C15.5478 39.8342 15.2731 40 15.0328 40Z" fill="white"/>
</svg>
