<svg width="51" height="51" viewBox="0 0 51 51" fill="none" xmlns="http://www.w3.org/2000/svg">
<path d="M46.6659 23.7321C44.1231 19.3472 40.7591 15.519 37.3603 13.1223C37.5718 12.763 37.6945 12.3393 37.6945 11.8856C37.6945 10.9316 37.1533 10.1093 36.3789 9.74313L37.974 3.12205C38.15 2.46238 38.0362 1.85172 37.661 1.44498C37.2833 1.0358 36.7044 0.901516 36.0726 1.0773C36.0602 1.08072 36.0477 1.08453 36.0355 1.08863C36.0055 1.09878 33.015 2.10915 32.0219 2.41111C31.3826 2.60496 30.2604 2.60613 29.6204 2.41316C28.6168 2.11061 25.5949 1.09615 25.5644 1.08589C25.5522 1.08179 25.5399 1.07798 25.5276 1.07466C24.8957 0.900149 24.3168 1.03482 23.9393 1.44449C23.5618 1.85416 23.449 2.47019 23.6299 3.13465C23.6321 3.14295 23.6345 3.15115 23.6371 3.15936L25.6613 9.76481C24.9113 10.1413 24.3912 10.9503 24.3912 11.8855C24.3912 12.3392 24.5139 12.7629 24.7254 13.1222C21.3267 15.5189 17.9626 19.3472 15.4199 23.732C12.625 28.5517 11.0858 33.5129 11.0858 37.7018C11.0858 41.7502 12.2197 44.9468 14.4562 47.2027C16.9541 49.7224 20.7937 51 25.8685 51H36.2172C41.2921 51 45.1317 49.7224 47.6296 47.2027C49.866 44.9467 51 41.7502 51 37.7018C51 33.513 49.4608 28.5518 46.6659 23.7321ZM32.5253 12.669H32.5246H29.5615H29.5598H26.6077C26.1995 12.669 25.8675 12.3176 25.8675 11.8857C25.8675 11.4544 26.1988 11.1033 26.6063 11.1024L26.6076 11.1025L26.6099 11.1023H30.3014L30.3038 11.1025C30.3051 11.1025 30.3064 11.1023 30.3077 11.1023H31.7779C31.7792 11.1023 31.7805 11.1025 31.7818 11.1025L31.7842 11.1023H35.4779C35.8861 11.1023 36.2181 11.4538 36.2181 11.8856C36.2181 12.3175 35.886 12.6689 35.4779 12.6689L32.5253 12.669ZM25.0226 2.56277C25.0522 2.56472 25.0909 2.57019 25.1387 2.5824C25.4323 2.68093 28.2245 3.61727 29.2161 3.9161C30.1174 4.18759 31.5287 4.18652 32.4292 3.91308C33.4099 3.61493 36.1711 2.68318 36.4636 2.58435C36.5103 2.57234 36.5484 2.56677 36.5777 2.56472C36.5748 2.59929 36.5675 2.64519 36.5519 2.70222C36.5499 2.70994 36.5479 2.71765 36.546 2.72546L34.9043 9.53981H32.8724L33.9458 6.69963C34.0972 6.29904 33.9131 5.84435 33.5345 5.68419C33.1559 5.52403 32.7264 5.71876 32.575 6.11945L31.2822 9.53981H30.8034L29.5106 6.11945C29.3592 5.71867 28.9297 5.52394 28.5511 5.68419C28.1725 5.84445 27.9884 6.29914 28.1398 6.69963L29.2132 9.53981H27.1442L25.0457 2.69158C25.0318 2.63835 25.0252 2.59538 25.0226 2.56277ZM46.6109 46.0718C44.3968 48.3051 40.8999 49.4376 36.2172 49.4376H25.8685C21.1857 49.4376 17.6888 48.3051 15.4747 46.0718C13.542 44.1222 12.5621 41.3061 12.5621 37.7019C12.5621 33.7976 14.0238 29.1266 16.6781 24.5494C19.2201 20.1658 22.6013 16.3758 25.968 14.1316C26.1706 14.1963 26.3854 14.2316 26.6077 14.2316H28.1851L27.4718 15.3639C27.2456 15.7229 27.3373 16.2081 27.6766 16.4473C27.8024 16.5361 27.9446 16.5787 28.0853 16.5787C28.3239 16.5787 28.558 16.4565 28.7003 16.2307L29.9594 14.2317H32.1261L33.3852 16.2307C33.5275 16.4566 33.7615 16.5787 34.0001 16.5787C34.1409 16.5787 34.2831 16.5361 34.4089 16.4473C34.7481 16.2081 34.8398 15.7229 34.6137 15.3639L33.9004 14.2316H35.4778C35.7002 14.2316 35.9149 14.1963 36.1176 14.1316C39.4842 16.3758 42.8655 20.1659 45.4074 24.5494C48.0617 29.1266 49.5234 33.7975 49.5234 37.7019C49.5236 41.3061 48.5435 44.1222 46.6109 46.0718Z" fill="white"/>
<path d="M31.0428 25.9661C32.3863 25.9661 33.6302 26.6442 33.9366 27.5443C33.9789 27.6683 34.0004 27.7957 34.0004 27.9229C34.0004 29.2164 34.9948 30.2687 36.217 30.2687C37.4391 30.2687 38.4335 29.2164 38.4335 27.9229C38.4335 27.2528 38.3236 26.5901 38.1067 25.9529C37.3794 23.8163 35.5715 22.212 33.2129 21.5777C33.0037 20.5127 32.11 19.7097 31.0425 19.7097C29.9772 19.7097 29.085 20.5093 28.8735 21.5712C27.4993 21.9519 26.2595 22.695 25.3382 23.6985C24.2505 24.8833 23.6516 26.3835 23.6516 27.9229C23.6516 31.589 26.9671 34.5715 31.0425 34.5715C32.4387 34.5715 34.0002 35.4083 34.0002 36.5283C34.0002 37.6483 32.4387 38.4851 31.0425 38.4851C29.6463 38.4851 28.0847 37.6483 28.0847 36.5283C28.0847 35.2348 27.0904 34.1825 25.8682 34.1825C24.646 34.1825 23.6519 35.2349 23.6519 36.5284C23.6519 38.0679 24.2509 39.5681 25.3386 40.7528C26.2598 41.7563 27.4997 42.4995 28.8738 42.8801C29.0853 43.942 29.9775 44.7417 31.0428 44.7417C32.1082 44.7417 33.0004 43.942 33.2119 42.8801C34.586 42.4995 35.8258 41.7563 36.7471 40.7528C37.8348 39.5681 38.4338 38.0679 38.4338 36.5284C38.4338 32.8624 35.1182 29.8799 31.0428 29.8799C29.6466 29.8799 28.0851 29.043 28.0851 27.923C28.0851 26.8031 29.6465 25.9661 31.0428 25.9661ZM31.0428 31.4424C34.304 31.4424 36.9573 33.724 36.9573 36.5284C36.9573 38.8626 35.0336 40.9439 32.3833 41.4772C32.0351 41.5473 31.783 41.8696 31.783 42.2447V42.3957C31.783 42.8277 31.4509 43.1791 31.0428 43.1791C30.6347 43.1791 30.3027 42.8276 30.3027 42.3957V42.2447C30.3027 41.8695 30.0507 41.5472 29.7024 41.4772C27.0521 40.9439 25.1284 38.8627 25.1284 36.5284C25.1284 36.0964 25.4605 35.7451 25.8685 35.7451C26.2766 35.7451 26.6087 36.0965 26.6087 36.5284C26.6087 38.4689 28.5978 40.0478 31.0428 40.0478C33.4878 40.0478 35.477 38.4689 35.477 36.5284C35.477 34.5878 33.4878 33.0091 31.0428 33.0091C27.7816 33.0091 25.1283 30.7275 25.1283 27.923C25.1283 25.5888 27.052 23.5075 29.7023 22.9743C30.0505 22.9042 30.3026 22.5819 30.3026 22.2068V22.0557C30.3026 21.6238 30.6347 21.2724 31.0428 21.2724C31.4509 21.2724 31.7829 21.6239 31.7829 22.0557V22.2164C31.7829 22.5927 32.0363 22.9154 32.3858 22.9844C34.463 23.3943 36.1229 24.7348 36.7179 26.4826C36.8767 26.9492 36.9573 27.4338 36.9573 27.923C36.9573 28.3549 36.6252 28.7063 36.2171 28.7063C35.8091 28.7063 35.477 28.3548 35.477 27.923C35.477 27.614 35.4259 27.3078 35.3254 27.0138C34.8024 25.477 33.0413 24.4036 31.0428 24.4036C28.5978 24.4036 26.6087 25.9824 26.6087 27.9229C26.6087 29.8635 28.5978 31.4424 31.0428 31.4424Z" fill="white"/>
<path d="M6 12L9 15L16 8" stroke="white" stroke-width="2" stroke-linecap="round" stroke-linejoin="round"/>
<path d="M11 22C16.5228 22 21 17.299 21 11.5C21 5.70101 16.5228 1 11 1C5.47715 1 1 5.70101 1 11.5C1 17.299 5.47715 22 11 22Z" stroke="white" stroke-width="2" stroke-linecap="round" stroke-linejoin="round"/>
</svg>
