<svg width="189" height="46" viewBox="0 0 189 46" fill="none" xmlns="http://www.w3.org/2000/svg">
<g clip-path="url(#clip0_3_62)">
<path d="M1.98001 18.07C1.44958 18.07 0.940869 17.8593 0.565796 17.4842C0.190723 17.1091 -0.019989 16.6004 -0.019989 16.07V15.22C-0.0173437 11.1806 1.58777 7.30733 4.44308 4.45013C7.2984 1.59294 11.1707 -0.0147229 15.21 -0.0200195H39.42C39.9504 -0.0200195 40.4592 0.190693 40.8342 0.565765C41.2093 0.940838 41.42 1.44955 41.42 1.97998V4.38998C41.42 7.98459 39.9928 11.4321 37.4519 13.9748C34.9111 16.5175 31.4646 17.9473 27.87 17.95H15.97C15.4396 17.95 14.9309 17.7393 14.5558 17.3642C14.1807 16.9891 13.97 16.4804 13.97 15.95C13.97 15.4195 14.1807 14.9108 14.5558 14.5358C14.9309 14.1607 15.4396 13.95 15.97 13.95H27.86C30.4053 13.9473 32.8455 12.9351 34.6453 11.1353C36.4451 9.33551 37.4574 6.89524 37.46 4.34998V3.91998H15.23C12.2392 3.92263 9.37161 5.11191 7.25677 7.22675C5.14194 9.34158 3.95266 12.2092 3.95001 15.2V16.05C3.95536 16.5787 3.7511 17.088 3.38193 17.4666C3.01275 17.8451 2.50871 18.0621 1.98001 18.07Z" fill="white"/>
<path d="M26.18 45.6H1.98001C1.44958 45.6 0.940869 45.3893 0.565796 45.0142C0.190723 44.6391 -0.019989 44.1304 -0.019989 43.6V41.19C-0.0173446 37.5962 1.41078 34.1502 3.95103 31.6081C6.49129 29.0659 9.93622 27.6353 13.53 27.63H25.42C25.9504 27.63 26.4592 27.8407 26.8342 28.2158C27.2093 28.5908 27.42 29.0995 27.42 29.63C27.42 30.1604 27.2093 30.6691 26.8342 31.0442C26.4592 31.4193 25.9504 31.63 25.42 31.63H13.55C11.0047 31.6326 8.56449 32.6449 6.76471 34.4447C4.96493 36.2444 3.95266 38.6847 3.95001 41.23V41.66H26.18C29.1708 41.6573 32.0384 40.4681 34.1532 38.3532C36.2681 36.2384 37.4574 33.3708 37.46 30.38V29.53C37.4144 29.2443 37.4313 28.9521 37.5096 28.6736C37.5879 28.3951 37.7257 28.1369 37.9134 27.9168C38.1012 27.6967 38.3345 27.5199 38.5972 27.3987C38.8598 27.2775 39.1457 27.2148 39.435 27.2148C39.7243 27.2148 40.0102 27.2775 40.2729 27.3987C40.5356 27.5199 40.7688 27.6967 40.9566 27.9168C41.1444 28.1369 41.2821 28.3951 41.3604 28.6736C41.4387 28.9521 41.4556 29.2443 41.41 29.53V30.38C41.4021 34.4159 39.7946 38.2841 36.9399 41.1369C34.0851 43.9898 30.2159 45.5947 26.18 45.6Z" fill="white"/>
<path d="M63.15 20.01C64.0269 20.1418 64.8837 20.3837 65.7 20.73C66.3363 21.0051 66.9033 21.4185 67.36 21.94C67.7901 22.4543 68.0978 23.0595 68.26 23.71C68.4522 24.5019 68.543 25.3151 68.53 26.13V26.67C68.5489 27.5909 68.4067 28.508 68.11 29.38C67.8384 30.1471 67.3483 30.818 66.7 31.31C65.913 31.8829 65.0131 32.2817 64.06 32.48C62.7114 32.7563 61.3365 32.8837 59.96 32.86H57.05C55.77 32.86 54.13 32.86 52.14 32.8L52.72 29.8H54.99H59.99C60.8588 29.8091 61.7272 29.7623 62.59 29.66C63.1507 29.6006 63.6926 29.4234 64.18 29.14C64.5547 28.9121 64.835 28.5572 64.97 28.14C65.1233 27.6209 65.1942 27.081 65.18 26.54C65.1851 26.0643 65.1483 25.5892 65.07 25.12C65.004 24.7549 64.8495 24.4115 64.62 24.12C64.3462 23.8209 64.0026 23.5942 63.62 23.46C63.0685 23.2576 62.4994 23.107 61.92 23.01L57.57 22.3C56.652 22.173 55.7565 21.9172 54.91 21.54C54.2788 21.2614 53.7183 20.8445 53.27 20.32C52.8635 19.8239 52.5823 19.2375 52.45 18.61C52.2893 17.8744 52.2121 17.1229 52.22 16.37V15.8C52.2092 14.9465 52.3584 14.0985 52.66 13.3C52.9555 12.5541 53.4417 11.8989 54.07 11.4C54.8369 10.8243 55.7157 10.4155 56.65 10.2C57.9404 9.89447 59.2642 9.75337 60.59 9.78H65.54L67.84 9.82999L67.26 12.83C65.74 12.83 64.44 12.76 63.37 12.76H60.31C59.5273 12.7486 58.7449 12.7987 57.97 12.91C57.4542 12.9741 56.959 13.1517 56.52 13.43C56.168 13.6663 55.9125 14.0212 55.8 14.43C55.6562 14.9167 55.5888 15.4227 55.6 15.93C55.5932 16.373 55.6334 16.8155 55.72 17.25C55.7802 17.5921 55.9284 17.9126 56.15 18.18C56.4048 18.471 56.7278 18.6943 57.09 18.83C57.6057 19.0302 58.1425 19.1712 58.69 19.25L63.15 20.01Z" fill="white"/>
<path d="M75.88 11.21C75.9088 11.5071 75.8752 11.8069 75.7812 12.0901C75.6873 12.3734 75.5351 12.6339 75.3346 12.8549C75.134 13.0759 74.8894 13.2525 74.6165 13.3734C74.3436 13.4942 74.0484 13.5566 73.75 13.5566C73.4515 13.5566 73.1564 13.4942 72.8835 13.3734C72.6106 13.2525 72.366 13.0759 72.1654 12.8549C71.9648 12.6339 71.8127 12.3734 71.7187 12.0901C71.6248 11.8069 71.5912 11.5071 71.62 11.21C71.5912 10.9129 71.6248 10.6131 71.7187 10.3298C71.8127 10.0465 71.9648 9.78606 72.1654 9.56506C72.366 9.34407 72.6106 9.16748 72.8835 9.04663C73.1564 8.92578 73.4515 8.86334 73.75 8.86334C74.0484 8.86334 74.3436 8.92578 74.6165 9.04663C74.8894 9.16748 75.134 9.34407 75.3346 9.56506C75.5351 9.78606 75.6873 10.0465 75.7812 10.3298C75.8752 10.6131 75.9088 10.9129 75.88 11.21ZM72.08 16.14H75.46V32.8H72.08V16.14Z" fill="white"/>
<path d="M79.84 32.8V21.04C79.84 19.04 80.4 17.67 81.53 16.85C82.7474 16.2008 84.0828 15.8025 85.457 15.6789C86.8312 15.5552 88.2162 15.7086 89.53 16.13C90.3146 16.3795 91.0095 16.8521 91.53 17.49C92.052 16.8538 92.7464 16.3816 93.53 16.13C94.853 15.7025 96.2485 15.546 97.6333 15.6697C99.0181 15.7934 100.364 16.1948 101.59 16.85C102.72 17.67 103.29 19.06 103.29 21.04V32.8H99.91V21.71C99.9118 21.2388 99.885 20.768 99.83 20.3C99.7848 19.9343 99.6394 19.5883 99.41 19.3C99.1477 18.994 98.7992 18.7745 98.41 18.67C97.8069 18.51 97.1836 18.4393 96.56 18.46C95.9746 18.4439 95.3897 18.5044 94.82 18.64C94.4439 18.7261 94.0983 18.9128 93.82 19.18C93.5808 19.4331 93.4179 19.7485 93.35 20.09C93.274 20.4854 93.2372 20.8873 93.24 21.29V32.8H89.86V21.71C89.8618 21.2388 89.8351 20.768 89.78 20.3C89.7348 19.9343 89.5894 19.5883 89.36 19.3C89.0953 18.9968 88.7477 18.7778 88.36 18.67C87.7569 18.51 87.1336 18.4393 86.51 18.46C85.8897 18.4411 85.27 18.5118 84.67 18.67C84.2808 18.7745 83.9322 18.994 83.67 19.3C83.4562 19.5952 83.3188 19.9388 83.27 20.3C83.2149 20.768 83.1882 21.2388 83.19 21.71V32.8H79.84Z" fill="white"/>
<path d="M115.4 15.63C116.584 15.607 117.767 15.7313 118.92 16C119.812 16.2048 120.63 16.6551 121.28 17.3C121.944 18.0015 122.416 18.8626 122.65 19.8C122.958 21.09 123.099 22.4141 123.07 23.74V25.19C123.085 26.4186 122.971 27.6453 122.73 28.85C122.55 29.7733 122.141 30.6366 121.54 31.36C120.912 32.0576 120.101 32.5666 119.2 32.83C117.965 33.1833 116.684 33.3452 115.4 33.31C114.532 33.3329 113.666 33.2078 112.84 32.94C112.218 32.7419 111.643 32.4186 111.15 31.99V38.43H107.73V23.58C107.703 22.2959 107.851 21.0141 108.17 19.77C108.401 18.8463 108.874 18.0007 109.54 17.32C110.206 16.6843 111.026 16.2329 111.92 16.01C113.06 15.7405 114.229 15.6128 115.4 15.63ZM115.4 30.54C116.131 30.5576 116.863 30.4938 117.58 30.35C118.083 30.2439 118.535 29.9686 118.86 29.57C119.213 29.0981 119.428 28.5371 119.48 27.95C119.583 27.0338 119.63 26.112 119.62 25.19V23.74C119.637 22.8007 119.583 21.8614 119.46 20.93C119.398 20.3467 119.18 19.7907 118.83 19.32C118.5 18.928 118.044 18.6629 117.54 18.57C116.834 18.4444 116.117 18.3875 115.4 18.4C114.686 18.3893 113.973 18.4462 113.27 18.57C112.763 18.6645 112.3 18.9206 111.95 19.3C111.593 19.7505 111.364 20.2898 111.29 20.86C111.164 21.761 111.107 22.6703 111.12 23.58V25.87C111.104 26.6478 111.168 27.4252 111.31 28.19C111.402 28.7199 111.637 29.2145 111.99 29.62C112.342 29.9967 112.804 30.2522 113.31 30.35C113.988 30.4892 114.678 30.553 115.37 30.54H115.4Z" fill="white"/>
<path d="M127.03 32.8V21.39C127.006 20.5475 127.159 19.7093 127.48 18.93C127.755 18.28 128.196 17.7142 128.76 17.29C129.353 16.8436 130.035 16.5298 130.76 16.37C131.601 16.1653 132.465 16.0679 133.33 16.08H135.72C136.28 16.08 136.74 16.08 137.1 16.08L136.52 18.88H135.52H134.62H133.65C133.049 18.8605 132.449 18.9313 131.87 19.09C131.478 19.187 131.127 19.408 130.87 19.72C130.648 20.0105 130.509 20.3564 130.47 20.72C130.41 21.1775 130.384 21.6387 130.39 22.1V32.8H127.03Z" fill="white"/>
<path d="M142.43 25.71C142.42 26.4425 142.467 27.1747 142.57 27.9C142.635 28.3859 142.836 28.8435 143.15 29.22C143.476 29.5585 143.899 29.7888 144.36 29.88C145.038 30.0151 145.729 30.0755 146.42 30.06H148.79C149.79 30.06 150.99 30.06 152.51 29.99L151.93 32.8L150.22 32.85H146.42C145.159 32.8924 143.899 32.7131 142.7 32.32C141.839 32.0357 141.071 31.5226 140.48 30.8356C139.888 30.1486 139.494 29.3136 139.34 28.42C139.134 27.3964 139.037 26.354 139.05 25.31V23.51C139.039 22.4027 139.14 21.2971 139.35 20.21C139.517 19.303 139.905 18.4512 140.48 17.73C141.088 17.0099 141.879 16.4674 142.77 16.16C143.999 15.7615 145.288 15.5788 146.58 15.62C147.777 15.5798 148.971 15.749 150.11 16.12C150.927 16.3913 151.668 16.8542 152.27 17.47C152.793 18.0351 153.164 18.723 153.35 19.47C153.548 20.2309 153.649 21.0138 153.65 21.8V22.28C153.663 22.896 153.62 23.512 153.52 24.12C153.456 24.4805 153.313 24.8222 153.1 25.12C152.922 25.3601 152.669 25.5328 152.38 25.61C152.036 25.6876 151.683 25.7246 151.33 25.72L142.43 25.71ZM146.43 18.3C145.738 18.2819 145.047 18.3457 144.37 18.49C143.897 18.5936 143.472 18.8502 143.16 19.22C142.84 19.6465 142.64 20.1504 142.58 20.68C142.477 21.4825 142.431 22.291 142.44 23.1H150.44V22C150.451 21.4016 150.391 20.804 150.26 20.22C150.169 19.7803 149.946 19.379 149.62 19.07C149.263 18.772 148.836 18.569 148.38 18.48C147.735 18.3479 147.078 18.2876 146.42 18.3H146.43Z" fill="white"/>
<path d="M166.37 22.97C167.184 23.0206 167.981 23.2241 168.72 23.57C169.264 23.8302 169.738 24.2178 170.1 24.7C170.421 25.1157 170.646 25.5972 170.76 26.11C170.877 26.5913 170.938 27.0846 170.94 27.58V28.03C170.971 28.7112 170.838 29.3899 170.553 30.0093C170.267 30.6286 169.838 31.1707 169.3 31.59C167.796 32.5509 166.02 32.9966 164.24 32.86H160.87L157.02 32.81L157.6 30C158.76 30 159.94 30 161.15 30.05H164.4C165.275 30.1209 166.154 29.9767 166.96 29.63C167.21 29.4419 167.405 29.191 167.526 28.903C167.647 28.6149 167.69 28.2999 167.65 27.99C167.655 27.7442 167.628 27.4989 167.57 27.26C167.516 27.036 167.406 26.8294 167.25 26.66C167.054 26.4685 166.818 26.3218 166.56 26.23C166.164 26.0903 165.75 26.0095 165.33 25.99L161.47 25.64C160.779 25.59 160.103 25.4208 159.47 25.14C158.954 24.906 158.494 24.5651 158.12 24.14C157.778 23.7497 157.519 23.2937 157.36 22.8C157.201 22.3124 157.12 21.8028 157.12 21.29V20.8C157.088 20.1503 157.208 19.5021 157.47 18.9068C157.732 18.3114 158.129 17.7853 158.63 17.37C159.63 16.54 161.3 16.13 163.63 16.13H166.85C167.97 16.13 169.23 16.13 170.62 16.19L170.04 19C169.14 19 168.35 19 167.66 19H165.84H163.28C162.495 18.9408 161.708 19.0782 160.99 19.4C160.765 19.5616 160.587 19.7802 160.475 20.0332C160.362 20.2863 160.319 20.5648 160.35 20.84C160.344 21.0891 160.371 21.338 160.43 21.58C160.48 21.7879 160.592 21.976 160.75 22.12C160.956 22.2998 161.198 22.4328 161.46 22.51C161.863 22.6349 162.279 22.7121 162.7 22.74L166.37 22.97Z" fill="white"/>
<path d="M183.73 22.97C184.544 23.0206 185.341 23.2241 186.08 23.57C186.624 23.8302 187.098 24.2178 187.46 24.7C187.781 25.1157 188.006 25.5972 188.12 26.11C188.237 26.5913 188.298 27.0846 188.3 27.58V28.03C188.331 28.7112 188.198 29.3899 187.913 30.0093C187.627 30.6286 187.198 31.1707 186.66 31.59C185.156 32.5509 183.38 32.9966 181.6 32.86H178.24L174.39 32.81L174.96 30C176.13 30 177.3 30 178.51 30.05H181.76C182.635 30.1209 183.514 29.9767 184.32 29.63C184.571 29.443 184.769 29.1927 184.892 28.9046C185.015 28.6164 185.059 28.3008 185.02 27.99C185.02 27.7445 184.993 27.4997 184.94 27.26C184.878 27.0369 184.765 26.8314 184.61 26.66C184.414 26.4685 184.178 26.3218 183.92 26.23C183.527 26.0913 183.116 26.0105 182.7 25.99L178.83 25.64C178.14 25.588 177.463 25.4189 176.83 25.14C176.314 24.906 175.854 24.5651 175.48 24.14C175.113 23.7561 174.83 23.2996 174.65 22.8C174.491 22.3124 174.41 21.8028 174.41 21.29V20.8C174.378 20.1503 174.498 19.5021 174.76 18.9068C175.022 18.3114 175.419 17.7853 175.92 17.37C176.92 16.54 178.59 16.13 180.92 16.13H184.14C185.26 16.13 186.52 16.13 187.91 16.19L187.34 19C186.43 19 185.64 19 184.95 19H183.13H180.57C179.785 18.9408 178.998 19.0782 178.28 19.4C178.055 19.5616 177.877 19.7802 177.765 20.0332C177.652 20.2863 177.609 20.5648 177.64 20.84C177.634 21.0891 177.661 21.338 177.72 21.58C177.77 21.7879 177.882 21.976 178.04 22.12C178.246 22.2998 178.488 22.4328 178.75 22.51C179.153 22.6349 179.569 22.7121 179.99 22.74L183.73 22.97Z" fill="white"/>
</g>
<defs>
<clipPath id="clip0_3_62">
<rect width="188.3" height="45.59" fill="white"/>
</clipPath>
</defs>
</svg>
