<svg width="49" height="48" viewBox="0 0 49 48" fill="none" xmlns="http://www.w3.org/2000/svg">
<path d="M39.318 31.592C38.706 30.9573 38.4 30.2093 38.4 29.348C38.4 28.4867 38.706 27.75 39.318 27.138C39.9527 26.5033 40.7007 26.186 41.562 26.186C42.4233 26.186 43.16 26.5033 43.772 27.138C44.4067 27.75 44.724 28.4867 44.724 29.348C44.724 30.2093 44.4067 30.9573 43.772 31.592C43.16 32.204 42.4233 32.51 41.562 32.51C40.7007 32.51 39.9527 32.204 39.318 31.592ZM45.064 8.778L45.982 10.138L42.99 24.01L39.964 24.316L38.91 9.866L45.064 8.778Z" fill="white"/>
<path d="M31.8736 27.7243C36.8724 21.1007 36.273 11.7549 30.07 5.78635C23.2003 -0.821849 12.0217 -0.821849 5.15295 5.78635C-1.71765 12.3961 -1.71765 23.1487 5.15295 29.7586C11.356 35.7262 21.0705 36.3028 27.9545 31.4946L29.3164 32.8031L33.2346 29.0336L31.8736 27.7243ZM26.6535 26.4727C21.6601 31.2757 13.5628 31.2767 8.56853 26.4727C3.5743 21.6679 3.5743 13.8772 8.56853 9.07322C13.5629 4.26927 21.6601 4.26927 26.6535 9.07322C31.6478 13.8772 31.6478 21.6679 26.6535 26.4727Z" fill="white"/>
<path d="M10.4519 11.8135C7.85885 15.0185 7.64376 19.4276 9.80494 22.8334C10.0101 23.1548 10.4474 23.2574 10.7825 23.06C11.1167 22.8627 11.2224 22.4419 11.0183 22.1205V22.1212C9.1617 19.2007 9.34719 15.3993 11.572 12.6531C11.8139 12.3557 11.7583 11.9254 11.4482 11.6945C11.1392 11.4618 10.6921 11.5153 10.4519 11.8135Z" fill="white"/>
<path d="M48.0097 41.237L34.7793 29.8672L30.1846 34.2875L42.0021 47.0167C43.2037 48.5123 45.3675 48.2925 47.3118 46.4219C49.2552 44.5523 49.5653 42.393 48.0097 41.237Z" fill="white"/>
</svg>
