<svg width="50" height="50" viewBox="0 0 50 50" fill="none" xmlns="http://www.w3.org/2000/svg">
<path d="M18.0564 0.000101122C14.6284 -0.0115239 11.2722 0.979392 8.40389 2.85007L19.8439 14.2499C20.2249 14.5739 20.537 14.9705 20.7618 15.4165C20.9866 15.8624 21.1196 16.3487 21.1529 16.8467C21.1863 17.3447 21.1192 17.8442 20.9558 18.316C20.7924 18.7877 20.5359 19.2222 20.2014 19.5936C19.8287 19.9269 19.3927 20.1825 18.9193 20.3454C18.4459 20.5082 17.9445 20.575 17.4448 20.5418C16.9451 20.5086 16.4571 20.3761 16.0096 20.152C15.562 19.928 15.164 19.617 14.8389 19.2374L3.04136 7.83751C1.00163 10.8284 -0.0598006 14.3748 0.00260187 17.9905C0.0214303 22.7561 1.92957 27.3211 5.31125 30.6909C8.69292 34.0607 13.2741 35.9622 18.0564 35.9809C19.6215 35.9895 21.1819 35.81 22.7039 35.4465L34.6802 47.3808C36.3632 49.0578 38.6458 50 41.0259 50C43.406 50 45.6886 49.0578 47.3715 47.3808C49.0545 45.7037 50 43.4291 50 41.0574C50 38.6857 49.0545 36.4111 47.3715 34.7341L35.3952 22.7998C35.76 21.2832 35.9401 19.7282 35.9315 18.1686C35.9791 15.7997 35.5518 13.4451 34.6748 11.2427C33.7978 9.04034 32.4887 7.03445 30.8241 5.34251C29.1595 3.65057 27.1729 2.30658 24.9805 1.38924C22.7882 0.47189 20.4342 -0.000372811 18.0564 0.000101122ZM32.3565 17.9905C32.3539 19.2562 32.1734 20.5153 31.8202 21.7311L31.284 23.6904L32.714 25.1154L44.6903 37.0497C45.2003 37.5308 45.6062 38.1109 45.8828 38.7542C46.1595 39.3975 46.3011 40.0904 46.299 40.7902C46.3192 41.4927 46.1857 42.1911 45.9079 42.837C45.6301 43.4829 45.2146 44.0609 44.6903 44.5308C44.2061 45.0374 43.6238 45.4407 42.9785 45.7163C42.3332 45.9918 41.6385 46.1339 40.9365 46.1339C40.2345 46.1339 39.5398 45.9918 38.8945 45.7163C38.2493 45.4407 37.6669 45.0374 37.1828 44.5308L25.2065 32.5966L23.7764 31.1716L21.8102 31.706C20.5901 32.0579 19.3266 32.2377 18.0564 32.2403C14.2581 32.2298 10.6096 30.7628 7.86763 28.1435C6.48097 26.8433 5.38287 25.2682 4.644 23.5196C3.90514 21.7709 3.54188 19.8875 3.57762 17.9905C3.58008 16.6663 3.76043 15.3483 4.11387 14.0718L11.9789 21.9092C12.6435 22.6299 13.4454 23.2115 14.3379 23.6202C15.2303 24.0288 16.1955 24.2564 17.1771 24.2895C18.1588 24.3227 19.1372 24.1608 20.0554 23.8133C20.9736 23.4658 21.8132 22.9396 22.5252 22.2655C23.2017 21.5559 23.7298 20.7193 24.0785 19.8043C24.4272 18.8893 24.5897 17.9144 24.5564 16.9362C24.5231 15.958 24.2948 14.9962 23.8847 14.1069C23.4746 13.2175 22.8909 12.4185 22.1677 11.7562L14.3027 3.9188C15.4587 3.55446 16.6652 3.37413 17.8777 3.38444C21.676 3.39495 25.3245 4.86198 28.0665 7.48126C30.8109 10.2968 32.3493 14.0654 32.3565 17.9905Z" fill="white"/>
</svg>
