<svg width="50" height="50" viewBox="0 0 50 50" fill="none" xmlns="http://www.w3.org/2000/svg">
<path d="M22.5 32.5V27.5C20.5109 27.5 18.6032 26.7098 17.1967 25.3033C15.7902 23.8968 15 21.9891 15 20C15 18.0109 15.7902 16.1032 17.1967 14.6967C18.6032 13.2902 20.5109 12.5 22.5 12.5V10C22.5 9.33696 22.7634 8.70107 23.2322 8.23223C23.7011 7.76339 24.337 7.5 25 7.5C25.663 7.5 26.2989 7.76339 26.7678 8.23223C27.2366 8.70107 27.5 9.33696 27.5 10V12.5H27.555C29.5295 12.5 31.4232 13.2844 32.8194 14.6806C34.2156 16.0768 35 17.9705 35 19.945C35 20.608 34.7366 21.2439 34.2678 21.7128C33.7989 22.1816 33.163 22.445 32.5 22.445C31.837 22.445 31.2011 22.1816 30.7322 21.7128C30.2634 21.2439 30 20.608 30 19.945C30 19.2965 29.7424 18.6747 29.2839 18.2161C28.8253 17.7576 28.2035 17.5 27.555 17.5H27.5V22.5C29.4891 22.5 31.3968 23.2902 32.8033 24.6967C34.2098 26.1032 35 28.0109 35 30C35 31.9891 34.2098 33.8968 32.8033 35.3033C31.3968 36.7098 29.4891 37.5 27.5 37.5V40C27.5 40.663 27.2366 41.2989 26.7678 41.7678C26.2989 42.2366 25.663 42.5 25 42.5C24.337 42.5 23.7011 42.2366 23.2322 41.7678C22.7634 41.2989 22.5 40.663 22.5 40V37.5H22.3725C20.4172 37.5 18.542 36.7233 17.1594 35.3406C15.7767 33.958 15 32.0828 15 30.1275C15 29.4645 15.2634 28.8286 15.7322 28.3597C16.2011 27.8909 16.837 27.6275 17.5 27.6275C18.163 27.6275 18.7989 27.8909 19.2678 28.3597C19.7366 28.8286 20 29.4645 20 30.1275C20.0007 30.7565 20.2508 31.3596 20.6956 31.8044C21.1404 32.2492 21.7435 32.4993 22.3725 32.5H22.5ZM27.5 32.5C28.163 32.5 28.7989 32.2366 29.2678 31.7678C29.7366 31.2989 30 30.663 30 30C30 29.337 29.7366 28.7011 29.2678 28.2322C28.7989 27.7634 28.163 27.5 27.5 27.5V32.5ZM22.5 17.5C21.837 17.5 21.2011 17.7634 20.7322 18.2322C20.2634 18.7011 20 19.337 20 20C20 20.663 20.2634 21.2989 20.7322 21.7678C21.2011 22.2366 21.837 22.5 22.5 22.5V17.5ZM25 50C11.1925 50 0 38.8075 0 25C0 11.1925 11.1925 0 25 0C38.8075 0 50 11.1925 50 25C50 38.8075 38.8075 50 25 50ZM25 45C30.3043 45 35.3914 42.8929 39.1421 39.1421C42.8929 35.3914 45 30.3043 45 25C45 19.6957 42.8929 14.6086 39.1421 10.8579C35.3914 7.10714 30.3043 5 25 5C19.6957 5 14.6086 7.10714 10.8579 10.8579C7.10714 14.6086 5 19.6957 5 25C5 30.3043 7.10714 35.3914 10.8579 39.1421C14.6086 42.8929 19.6957 45 25 45Z" fill="white"/>
</svg>
