<svg width="54" height="54" viewBox="0 0 54 54" fill="none" xmlns="http://www.w3.org/2000/svg">
<path opacity="0.5" d="M26.5 27C30.6421 27 34 23.6421 34 19.5C34 15.3579 30.6421 12 26.5 12C22.3579 12 19 15.3579 19 19.5C19 23.6421 22.3579 27 26.5 27Z" stroke="white" stroke-width="4"/>
<path d="M27 52C40.8071 52 52 40.8071 52 27C52 13.1929 40.8071 2 27 2C13.1929 2 2 13.1929 2 27C2 40.8071 13.1929 52 27 52Z" stroke="white" stroke-width="4"/>
<path opacity="0.5" d="M42 47C41.6002 39.4821 39.3755 34 26.9999 34C14.6246 34 12.3999 39.4821 12 47" stroke="white" stroke-width="4" stroke-linecap="round"/>
</svg>
