<svg width="40" height="50" viewBox="0 0 40 50" fill="none" xmlns="http://www.w3.org/2000/svg">
<path fill-rule="evenodd" clip-rule="evenodd" d="M33.3333 6.81818H35.5556C38.0102 6.81818 40 8.85325 40 11.3636V45.4545C40 47.9649 38.0102 50 35.5556 50H4.44444C1.98985 50 0 47.9649 0 45.4545V11.3636C0 8.85325 1.98985 6.81818 4.44444 6.81818H6.66667C6.66667 4.3078 8.65651 2.27273 11.1111 2.27273H13.3243C14.996 0.824942 17.4203 0 20 0C22.5797 0 25.004 0.824942 26.6757 2.27273H28.8889C31.3435 2.27273 33.3333 4.3078 33.3333 6.81818ZM7.26125 11.3636H4.44444V45.4545H35.5556V11.3636H32.7387C31.9703 12.7223 30.534 13.6364 28.8889 13.6364H11.1111C9.46604 13.6364 8.02972 12.7223 7.26125 11.3636ZM17.7778 30.8768L27.3175 21.1202L30.4602 24.3343L17.7778 37.305L9.53976 28.8798L12.6825 25.6657L17.7778 30.8768ZM15.9037 6.03495L15.2392 6.81818H14.2252H11.1111V9.09091H28.8889V6.81818H24.7608L24.0963 6.03495C23.3662 5.17441 21.8013 4.54545 20 4.54545C18.1987 4.54545 16.6338 5.17441 15.9037 6.03495Z" fill="white"/>
</svg>
