<svg width="50" height="50" viewBox="0 0 50 50" fill="none" xmlns="http://www.w3.org/2000/svg">
<path fill-rule="evenodd" clip-rule="evenodd" d="M26.1233 3.55445C25.7513 3.44607 25.3446 3.47235 24.9992 3.62335C24.621 3.78868 24.371 4.07721 24.281 4.39119L23.0613 8.65596C22.6349 10.1474 22.0136 11.586 21.2139 12.9442C19.9721 15.0527 18.093 16.6744 16.3498 18.0369L12.6607 20.92C12.089 21.367 11.7881 22.0367 11.8533 22.7205L13.9357 44.564C14.0409 45.6674 15.0574 46.5116 16.2725 46.5116H28.192C36.2338 46.5116 43.0093 41.4365 44.3088 34.6212L46.1178 25.1335C46.3667 23.8277 45.2596 22.6377 43.8068 22.6377H30.522C28.0167 22.6377 26.1136 20.5991 26.518 18.3598L28.2172 8.95384C28.45 7.66542 28.3836 6.34705 28.022 5.08335C27.8387 4.44207 27.2808 3.89168 26.4951 3.66275L26.1233 3.55445ZM23.3295 0.480795C24.5669 -0.0599956 25.9928 -0.147577 27.2997 0.233237L27.6715 0.341539C29.6638 0.922051 31.2182 2.36556 31.7451 4.20745C32.241 5.94133 32.332 7.75014 32.0128 9.51786L30.3136 18.9238C30.2918 19.0442 30.3941 19.1493 30.522 19.1493H43.8068C47.6511 19.1493 50.5623 22.2942 49.9077 25.7279L48.0988 35.2158C46.4631 43.793 38.0027 50 28.192 50H16.2725C13.0581 50 10.3807 47.7679 10.1039 44.8644L8.02146 23.0209C7.8499 21.2216 8.64151 19.4565 10.15 18.2775L13.8391 15.3943C15.5191 14.0812 16.9333 12.8085 17.8214 11.3006C18.4793 10.1835 18.9889 9.00249 19.3385 7.78005L20.5583 3.51528C20.9408 2.17738 21.9654 1.07696 23.3295 0.480795ZM1.84016 19.1509C2.86902 19.1107 3.75025 19.8127 3.83896 20.7433L6.33022 46.8746C6.49025 48.5533 5.03246 50 3.17102 50C1.41765 50 0 48.71 0 47.1226V20.8935C0 19.9594 0.811274 19.1912 1.84016 19.1509Z" fill="white"/>
</svg>
