<svg width="55" height="43" viewBox="0 0 55 43" fill="none" xmlns="http://www.w3.org/2000/svg">
<path d="M51.1828 42.8433C50.9073 42.9003 50.625 42.9003 50.3495 42.8433C49.6737 42.5962 49.1109 42.0539 48.7836 41.3345C48.4563 40.6151 48.391 39.777 48.6021 39.0029C49.6457 35.2155 49.8941 31.2004 49.3272 27.2829C48.7603 23.3653 47.394 19.6555 45.3391 16.4537C43.2842 13.2519 40.5983 10.6483 37.4991 8.85363C34.3998 7.05899 30.9743 6.1238 27.5 6.1238C24.0257 6.1238 20.6002 7.05899 17.5009 8.85363C14.4017 10.6483 11.7158 13.2519 9.6609 16.4537C7.60598 19.6555 6.23974 23.3653 5.67284 27.2829C5.10594 31.2004 5.35432 35.2155 6.39785 39.0029C6.50376 39.3882 6.54222 39.7936 6.51105 40.1959C6.47988 40.5982 6.37968 40.9895 6.21618 41.3476C6.05268 41.7056 5.82908 42.0233 5.55814 42.2826C5.2872 42.5419 4.97423 42.7376 4.6371 42.8586C3.95623 43.1031 3.21829 43.0284 2.58561 42.651C1.95292 42.2736 1.47733 41.6245 1.26344 40.8463C-0.0300062 36.1393 -0.335692 31.1504 0.371123 26.2833C1.07794 21.4162 2.7774 16.8076 5.33198 12.8305C7.88656 8.85341 11.2245 5.61951 15.0757 3.3905C18.9269 1.1615 23.1831 0 27.5 0C31.8169 0 36.0731 1.1615 39.9243 3.3905C43.7755 5.61951 47.1134 8.85341 49.668 12.8305C52.2226 16.8076 53.9221 21.4162 54.6289 26.2833C55.3357 31.1504 55.03 36.1393 53.7366 40.8463C53.5427 41.4393 53.1934 41.9494 52.7363 42.3068C52.2792 42.6643 51.7366 42.8516 51.1828 42.8433Z" fill="white"/>
<path d="M51.2987 43H3.70133C2.98489 43 2.2978 42.6839 1.7912 42.1213C1.2846 41.5587 1 40.7956 1 40C1 39.2044 1.2846 38.4413 1.7912 37.8787C2.2978 37.3161 2.98489 37 3.70133 37H51.2987C52.0151 37 52.7022 37.3161 53.2088 37.8787C53.7154 38.4413 54 39.2044 54 40C54 40.7956 53.7154 41.5587 53.2088 42.1213C52.7022 42.6839 52.0151 43 51.2987 43Z" fill="white"/>
<path d="M27.6415 33.9996C27.2958 34.0019 26.9532 33.9266 26.6332 33.7779C26.3133 33.6292 26.0222 33.4102 25.7768 33.1333C25.5307 32.8556 25.3353 32.5252 25.202 32.1612C25.0686 31.7972 25 31.4068 25 31.0124C25 30.6181 25.0686 30.2276 25.202 29.8636C25.3353 29.4996 25.5307 29.1692 25.7768 28.8915L35.5202 17.8687C36.0122 17.3123 36.6779 17 37.3717 17C38.0655 17 38.7311 17.3123 39.2232 17.8687C39.4693 18.1464 39.6647 18.4768 39.798 18.8408C39.9314 19.2048 40 19.5952 40 19.9896C40 20.3839 39.9314 20.7744 39.798 21.1384C39.6647 21.5024 39.4693 21.8328 39.2232 22.1105L29.5324 33.1333C29.2838 33.4138 28.9885 33.6349 28.6638 33.7837C28.3391 33.9325 27.9915 34.0059 27.6415 33.9996Z" fill="white"/>
</svg>
